<svg xmlns="http://www.w3.org/2000/svg" style="display: none;">
  <symbol viewBox="0 0 569 110" id="victoryTitle">
    <path d="m13.9 22.94v67.56h-13.4v-84h72.4v84h-13.48v-67.56z" fill="none" stroke="currentColor">
      <animate
        attributeName="stroke-dasharray"
        begin="indefinite"
        dur="0.45s"
        fill="freeze"
      />
    </path>
    <path d="m146.66 4.09998c32.88 0 59.52 19.92002 59.52 44.40002s-26.64 44.4-59.52 44.4-59.5201-19.92-59.5201-44.4 26.6401-44.40002 59.5201-44.40002zm0 72.12002c24.48 0 44.4-12.36 44.4-27.72s-19.92-27.84-44.4-27.84c-24.76 0-44.76 12.36-44.76 27.84s20 27.72 44.76 27.72z" fill="none" stroke="currentColor">
      <animate
        attributeName="stroke-dasharray"
        begin="indefinite"
        dur="0.45s"
        fill="freeze"
      />
    </path>
    <path d="m285.26 6.5v16.44h-51.36v14.4h25.32c25.44 0 34 11.16 34 26.52 0 15.6-8.52 26.64-34 26.64h-38.76v-84zm-30.48 68.52c15.12 0 23.52-2 23.52-11.52s-8.4-10.56-23.52-10.56h-20.88v22.08z" fill="none" stroke="currentColor">
      <animate
        attributeName="stroke-dasharray"
        begin="indefinite"
        dur="0.45s"
        fill="freeze"
      />
    </path>
    <path d="m369.37 6.5v16.44h-50.63v17.16h33.6v16.4h-33.6v17.56h50.64v16.44h-64.08v-84h64.08z" fill="none" stroke="currentColor">
      <animate
        attributeName="stroke-dasharray"
        begin="indefinite"
        dur="0.45s"
        fill="freeze"
      />
    </path>
    <path d="m380.29 108.74v-34.68h7.44c4.56-4.68 7.8-18.36 8.76-56l.41-11.56h48.6v67.56h10v34.68h-14.73v-18.24h-45.87v18.24zm51.72-34.68v-51.12h-22.56v3.12c-.48 22.44-3.24 37.68-7.2 48z" fill="none" stroke="currentColor">
      <animate
        attributeName="stroke-dasharray"
        begin="indefinite"
        dur="0.45s"
        fill="freeze"
      />
    </path>
    <path d="m461.65 90.5 28-84h27.12l28.08 84h-13.48l-7.8-23.52h-37.8l-7.8 23.52zm56.64-40-13.39-40.16-13.49 40.16z" fill="none" stroke="currentColor">
      <animate
        attributeName="stroke-dasharray"
        begin="indefinite"
        dur="0.45s"
        fill="freeze"
      />
    </path>
    <path d="m552.02 68.9 1.43-68.4h13.45l1.44 68.4zm8.28 6.36c4.8 0 8 3.24 8 8.16 0 2.1323-.847 4.1773-2.355 5.6851s-3.553 2.3549-5.685 2.3549-4.177-.8471-5.685-2.3549-2.355-3.5528-2.355-5.6851c.03-4.92 3.27-8.16 8.07-8.16z" fill="none" stroke="currentColor">
      <animate
        attributeName="stroke-dasharray"
        begin="indefinite"
        dur="0.45s"
        fill="freeze"
      />
    </path>
  </symbol>

  <symbol viewBox="0 0 994 164" id="lostTitle">
    <path d="m169.987 139.619v-84.0716h13.251v34.2292h36.678v-34.2292h13.251v84.0716h-13.251v-33.388h-36.678v33.388z" fill="none" stroke="currentColor" transform="translate(0, -99)">
      <animate
        id="showLostTitle"
        attributeName="stroke-dasharray"
        begin="indefinite"
        dur="0.45s"
        fill="freeze"
      />
      <animateTransform
        attributeName="transform" type="translate"
        begin="showLostTitle.begin"
        dur="0.778s"
        values="0, -99; 0, 0; 0, -5; 0 0"
        keySplines="0.88 0 1    1;
                    0.33 0 0.67 1;
                    0.33 0 0.67 1"
        calcMode="spline"
        fill="freeze"
      />
    </path>
    <path d="m312.875 55.5474v16.454h-51.082v17.1747h33.907v16.4139h-33.907v17.575h51.103v16.454h-64.686v-84.0716z" fill="none" stroke="currentColor" transform="translate(0, -99)">
      <animate
        attributeName="stroke-dasharray"
        begin="showLostTitle.begin + 0.15s"
        dur="0.45s"
        fill="freeze"
      />
      <animateTransform
        attributeName="transform" type="translate"
        begin="showLostTitle.begin + 0.15s"
        dur="0.778s"
        values="0, -99; 0, 0; 0, -5; 0 0"
        keySplines="0.88 0 1    1;
                    0.33 0 0.67 1;
                    0.33 0 0.67 1"
        calcMode="spline"
        fill="freeze"
      />
    </path>
    <path d="m363.982 55.5474 20.579 42.3962 15.644-42.3962h16.488l-31.089 84.0716h-16.447l9.507-25.942-28.161-58.1296z" fill="none" stroke="currentColor" transform="translate(0, -99)">
      <animate
        attributeName="stroke-dasharray"
        begin="showLostTitle.begin + 0.3s"
        dur="0.45s"
        fill="freeze"
      />
      <animateTransform
        attributeName="transform" type="translate"
        begin="showLostTitle.begin + 0.25s"
        dur="0.778s"
        values="0, -99; 0, 0; 0, -5; 0 0"
        keySplines="0.88 0 1    1;
                    0.33 0 0.67 1;
                    0.33 0 0.67 1"
        calcMode="spline"
        fill="freeze"
      />
    </path>
    <path d="m437.918 72.0014v67.6176h-13.704v-84.0716h51.147v16.454z" fill="none" stroke="currentColor" transform="translate(0, -99)">
      <animate
        attributeName="stroke-dasharray"
        begin="showLostTitle.begin + 0.45s"
        dur="0.45s"
        fill="freeze"
      />
      <animateTransform
        attributeName="transform" type="translate"
        begin="showLostTitle.begin + 0.35s"
        dur="0.778s"
        values="0, -99; 0, 0; 0, -5; 0 0"
        keySplines="0.88 0 1    1;
                    0.33 0 0.67 1;
                    0.33 0 0.67 1"
        calcMode="spline"
        fill="freeze"
      />
    </path>
    <path d="m470.848 139.619 27.844-84.0716h26.969l27.924 84.0716h-13.405l-7.777-23.54h-37.589l-7.737 23.54zm56.324-40.034-13.365-40.1944-13.365 40.1944z" fill="none" stroke="currentColor" transform="translate(0, -99)">
      <animate
        attributeName="stroke-dasharray"
        begin="showLostTitle.begin + 0.6s"
        dur="0.45s"
        fill="freeze"
      />
      <animateTransform
        attributeName="transform" type="translate"
        begin="showLostTitle.begin + 0.4s"
        dur="0.778s"
        values="0, -99; 0, 0; 0, -5; 0 0"
        keySplines="0.88 0 1    1;
                    0.33 0 0.67 1;
                    0.33 0 0.67 1"
        calcMode="spline"
        fill="freeze"
      />
    </path>
    <path d="m558.097 157.635v-34.629h7.297c4.472-4.673 7.649-18.332 8.591-55.9159l.353-11.5427h47.663v67.4586h9.807v34.629h-14.397v-18.213h-44.976v18.213zm50.723-34.629v-51.0432h-22.125v3.1153c-.471 22.4065-3.178 37.6239-7.061 47.9279z" fill="none" stroke="currentColor" transform="translate(0, -99)">
      <animate
        attributeName="stroke-dasharray"
        begin="showLostTitle.begin + 0.45s"
        dur="0.45s"
        fill="freeze"
      />
      <animateTransform
        attributeName="transform" type="translate"
        begin="showLostTitle.begin + 0.3s"
        dur="0.778s"
        values="0, -99; 0, 0; 0, -5; 0 0"
        keySplines="0.88 0 1    1;
                    0.33 0 0.67 1;
                    0.33 0 0.67 1"
        calcMode="spline"
        fill="freeze"
      />
    </path>
    <path d="m640.834 139.619 27.351-84.0716h26.492l27.39 84.0716h-13.129l-7.619-23.54h-36.924l-7.619 23.54zm55.327-40.034-13.128-40.2344-13.129 40.2344z" fill="none" stroke="currentColor" transform="translate(0, -99)">
      <animate
        attributeName="stroke-dasharray"
        begin="showLostTitle.begin + 0.6s"
        dur="0.45s"
        fill="freeze"
      />
      <animateTransform
        attributeName="transform" type="translate"
        begin="showLostTitle.begin + 0.65s"
        dur="0.778s"
        values="0, -99; 0, 0; 0, -5; 0 0"
        keySplines="0.88 0 1    1;
                    0.33 0 0.67 1;
                    0.33 0 0.67 1"
        calcMode="spline"
        fill="freeze"
      />
    </path>
    <path d="m729.746 124.965c1.572.647 3.249.988 4.945 1.008 6.528 0 10.326-6.289 11.869-58.7754l.514-11.6502h45.695v84.6556h-13.273v-68.0873h-19.96l-.118 3.1443c-1.543 53.857-9.594 67.362-24.687 67.362-2.241-.013-4.472-.297-6.647-.847z" fill="none" stroke="currentColor" transform="translate(0, -99)">
      <animate
        attributeName="stroke-dasharray"
        begin="showLostTitle.begin + 0.75s"
        dur="0.45s"
        fill="freeze"
      />
      <animateTransform
        attributeName="transform" type="translate"
        begin="showLostTitle.begin + 0.9s"
        dur="0.778s"
        values="0, -99; 0, 0; 0, -5; 0 0"
        keySplines="0.88 0 1    1;
                    0.33 0 0.67 1;
                    0.33 0 0.67 1"
        calcMode="spline"
        fill="freeze"
      />
    </path>
    <path d="m807.812 117.278 1.326-67.7356h12.391l1.326 67.7356zm7.623 6.299c4.419 0 7.365 3.208 7.365 8.08 0 2.112-.78 4.137-2.168 5.63s-3.271 2.332-5.234 2.332-3.846-.839-5.234-2.332-2.168-3.518-2.168-5.63c.037-4.872 3.02-8.08 7.439-8.08z" fill="none" stroke="currentColor" transform="translate(0, -99)">
      <animate
        attributeName="stroke-dasharray"
        begin="showLostTitle.begin + 0.9s"
        dur="0.45s"
        fill="freeze"
      />
      <animateTransform
        attributeName="transform" type="translate"
        begin="showLostTitle.begin + 1.15s"
        dur="0.778s"
        values="0, -99; 0, 0; 0, -5; 0 0"
        keySplines="0.88 0 1    1;
                    0.33 0 0.67 1;
                    0.33 0 0.67 1"
        calcMode="spline"
        fill="freeze"
      />
    </path>
  </symbol>
</svg>
