<svg width="260" height="253" viewBox="0 0 259.52 252.19" fill="none" xmlns="http://www.w3.org/2000/svg">
  <g id="closeCap" transform="translate(0, 179)">
    <path d="M180.64 1H37.44C34.3686 1.01322 31.4273 2.24193 29.2592 4.41751C27.0912 6.59309 25.8726 9.53858 25.87 12.61V32.36H192.2V12.6C192.197 9.53029 190.98 6.58631 188.814 4.41101C186.648 2.23571 183.71 1.00584 180.64 0.98999" fill="#A67EE5"/>
    <path d="M180.64 1H37.44C34.3686 1.01322 31.4273 2.24193 29.2592 4.41751C27.0912 6.59309 25.8726 9.53858 25.87 12.61V32.36H192.2V12.6C192.195 9.53202 190.976 6.59062 188.811 4.41748C186.645 2.24434 183.708 1.01584 180.64 1Z" stroke="white" stroke-width="2" stroke-miterlimit="10"/>
    <path d="M221.87 1.00002H73.99C70.8714 0.967884 67.8667 2.17061 65.6317 4.34572C63.3966 6.52083 62.1126 9.49173 62.06 12.61V32.36H233.76V12.6C233.707 9.48172 232.423 6.51082 230.188 4.33571C227.953 2.1606 224.949 0.957874 221.83 0.990008" fill="#A67EE5"/>
    <path d="M221.87 1.00002H73.99C70.8714 0.967884 67.8667 2.17061 65.6317 4.34572C63.3966 6.52083 62.1126 9.49173 62.06 12.61V32.36H233.76V12.6C233.705 9.49045 232.425 6.52817 230.199 4.35634C227.973 2.18451 224.98 0.97846 221.87 1.00002V1.00002Z" stroke="white" stroke-width="2" stroke-miterlimit="10"/>
    <path d="M233.5 22.35C234.557 22.354 235.591 22.0441 236.472 21.4598C237.353 20.8754 238.041 20.0428 238.448 19.0674C238.855 18.092 238.964 17.0177 238.76 15.9805C238.556 14.9434 238.049 13.99 237.303 13.2412C236.557 12.4924 235.606 11.9818 234.569 11.7741C233.533 11.5664 232.458 11.671 231.481 12.0746C230.504 12.4782 229.669 13.1626 229.081 14.0412C228.494 14.9198 228.18 15.953 228.18 17.01C228.177 17.7103 228.313 18.4043 228.579 19.052C228.845 19.6998 229.237 20.2886 229.731 20.7848C230.225 21.2809 230.813 21.6746 231.46 21.9432C232.106 22.2118 232.8 22.35 233.5 22.35Z" fill="#A67EE5"/>
    <path d="M233.5 22.35C236.433 22.35 238.81 19.9592 238.81 17.01C238.81 14.0608 236.433 11.67 233.5 11.67C230.567 11.67 228.19 14.0608 228.19 17.01C228.19 19.9592 230.567 22.35 233.5 22.35Z" stroke="white" stroke-width="2" stroke-miterlimit="10"/>
    <path d="M232.38 12.6V22.35H221.65C220.899 22.3487 220.155 22.1994 219.462 21.9108C218.768 21.6221 218.139 21.1997 217.608 20.6676C217.078 20.1355 216.658 19.5042 216.372 18.8097C216.085 18.1152 215.939 17.3712 215.94 16.62V1H220.82C223.891 1.01322 226.831 2.24226 228.997 4.41812C231.164 6.59399 232.38 9.5395 232.38 12.61" fill="#A67EE5"/>
    <path d="M232.38 12.6V22.35H221.65C220.899 22.3487 220.155 22.1994 219.462 21.9108C218.768 21.6221 218.139 21.1997 217.608 20.6676C217.078 20.1355 216.658 19.5042 216.372 18.8097C216.085 18.1152 215.939 17.3712 215.94 16.62V1H220.82C223.889 1.01322 226.827 2.24088 228.994 4.41458C231.16 6.58829 232.377 9.53122 232.38 12.6Z" stroke="white" stroke-width="2" stroke-miterlimit="10"/>

    <animate
      id="closeCapHide"
      attributeType="CSS"
      attributeName="opacity"
      begin="7s"
      dur="0.01s"
      from="1"
      to="0"
      fill="freeze"
    />
  </g>

  <g id="openCap" opacity="0">
    <path d="M208.69 154.3C209.815 154.3 210.915 153.966 211.851 153.341C212.787 152.716 213.516 151.827 213.947 150.788C214.378 149.748 214.49 148.604 214.271 147.5C214.051 146.396 213.509 145.382 212.713 144.587C211.918 143.791 210.904 143.249 209.8 143.029C208.696 142.81 207.552 142.923 206.513 143.353C205.473 143.784 204.584 144.513 203.959 145.449C203.334 146.385 203 147.485 203 148.61C203 150.119 203.599 151.566 204.667 152.633C205.734 153.701 207.181 154.3 208.69 154.3" fill="#A67EE5"/>
    <path d="M208.69 154.3C211.833 154.3 214.38 151.753 214.38 148.61C214.38 145.468 211.833 142.92 208.69 142.92C205.548 142.92 203 145.468 203 148.61C203 151.753 205.548 154.3 208.69 154.3Z" stroke="white" stroke-width="2" stroke-miterlimit="10"/>
    <path d="M195.06 132.67H21.95C18.7847 132.67 15.7475 133.92 13.4999 136.149C11.2523 138.378 9.97639 141.405 9.95001 144.57V198.19C9.95001 201.638 11.3197 204.944 13.7576 207.382C16.1956 209.82 19.5022 211.19 22.95 211.19H206.95V144.57C206.924 141.415 205.656 138.398 203.421 136.17C201.187 133.943 198.165 132.686 195.01 132.67" fill="#A67EE5"/>
    <path d="M195.06 132.67H21.95C18.7847 132.67 15.7475 133.92 13.4999 136.149C11.2523 138.378 9.97639 141.405 9.95001 144.57V198.19C9.95001 201.638 11.3197 204.944 13.7576 207.382C16.1956 209.82 19.5022 211.19 22.95 211.19H206.95V144.57C206.924 141.424 205.663 138.414 203.439 136.188C201.215 133.962 198.206 132.699 195.06 132.67V132.67Z" stroke="white" stroke-width="2" stroke-miterlimit="10"/>
    <path d="M25 211.19V147.68C25 143.702 26.5804 139.886 29.3934 137.073C32.2064 134.26 36.0218 132.68 40 132.68H40.5" stroke="white" stroke-width="2"/>

    <animate
      attributeType="CSS"
      attributeName="opacity"
      begin="closeCapHide.end"
      dur="0.01s"
      from="0"
      to="1"
      fill="freeze"
    />
  </g>

  <g id="flower" opacity="0">
    <g class="flowerTall" transform="rotate(60 132.34 210.35)">
      <path d="M172.71 109.31L181.98 84.8201C185.066 85.1928 188.038 86.2153 190.7 87.8201C192.347 86.7013 194.356 86.2481 196.324 86.552C198.291 86.8559 200.071 87.8941 201.303 89.4576C202.536 91.021 203.13 92.9935 202.966 94.9776C202.802 96.9618 201.892 98.81 200.42 100.15C201.348 103.116 201.641 106.244 201.28 109.33L175.28 112.63C174.862 112.683 174.437 112.626 174.046 112.467C173.656 112.307 173.314 112.049 173.052 111.718C172.791 111.387 172.619 110.995 172.554 110.578C172.489 110.161 172.532 109.735 172.68 109.34" fill="#3B7BF2"/>
      <path d="M133 209.82C133 209.82 139.89 165.14 170.95 153.29" stroke="white" stroke-width="2" stroke-linecap="round" stroke-linejoin="round"/>
      <path d="M165.61 154.19L174.61 137.72C176.833 138.265 178.92 139.263 180.74 140.65C181.984 140.048 183.398 139.9 184.74 140.23C185.472 140.396 186.163 140.705 186.775 141.141C187.386 141.576 187.905 142.128 188.301 142.765C188.697 143.402 188.963 144.112 189.083 144.852C189.203 145.593 189.175 146.35 189 147.08C188.661 148.402 187.845 149.552 186.71 150.31C187.125 152.492 187.053 154.739 186.5 156.89L167.16 156.78C166.853 156.787 166.55 156.715 166.28 156.569C166.01 156.423 165.783 156.209 165.621 155.948C165.46 155.687 165.369 155.389 165.358 155.082C165.347 154.776 165.417 154.471 165.56 154.2" fill="#3B7BF2"/>
      <path d="M135.49 199.99C135.49 199.99 143.79 125.4 175.2 109.99" stroke="white" stroke-width="2" stroke-linecap="round" stroke-linejoin="round"/>
      <path d="M96.53 126.35C120.63 158.8 132.34 210.35 132.34 210.35" stroke="#3B7BF2" stroke-width="2" stroke-linecap="round" stroke-linejoin="round"/>
      <path d="M80.49 118.41C87.03 125.92 97.65 127.41 97.65 127.41C97.65 127.41 97.65 116.69 91.12 109.19C84.59 101.69 73.95 100.19 73.95 100.19C73.95 100.19 73.95 110.91 80.49 118.41" fill="#76ABFF"/>
      <path d="M107.93 128.73C105.24 138.31 109.84 148 109.84 148C109.84 148 118.84 142.14 121.51 132.55C124.18 122.96 119.6 113.28 119.6 113.28C119.6 113.28 110.6 119.14 107.93 128.73Z" fill="#3B7BF2"/>
      <path d="M90.58 149.9C100.17 152.6 109.84 147.99 109.84 147.99C109.84 147.99 103.98 138.99 94.39 136.32C84.8 133.65 75.13 138.19 75.13 138.19C75.13 138.19 81 147.19 90.58 149.86" fill="#3B7BF2"/>
      <path d="M120.86 154.71C117.45 164.07 121.33 174.06 121.33 174.06C121.33 174.06 130.72 168.88 134.12 159.53C137.52 150.18 133.65 140.19 133.65 140.19C133.65 140.19 124.26 145.37 120.86 154.72" fill="#1553B7"/>
      <path d="M101.98 174.54C111.34 177.94 121.33 174.07 121.33 174.07C121.33 174.07 116.15 164.68 106.79 161.28C97.43 157.88 87.44 161.75 87.44 161.75C87.44 161.75 92.62 171.14 101.98 174.54Z" fill="#1553B7"/>

      <animateTransform
        attributeType="XML" attributeName="transform" type="rotate"
        begin="closeCapHide.end + 0.2s"
        dur="1.5s"
        values="60 132.34 210.35; -15 132.34 210.35; 10 132.34 210.35; 0 132.34 210.35"
        keyTimes="             0;               0.7;              0.9;               1"
        calcMode="paced"
        fill="freeze"
      />
    </g>

    <g id="shamrock" transform="rotate(30 133.01 210.47)">
      <path d="M138.55 186.96C140.85 196.06 136.28 205.08 136.28 205.08C136.28 205.08 127.96 199.34 125.65 190.23C123.34 181.12 127.92 172.11 127.92 172.11C127.92 172.11 136.24 177.86 138.55 186.96Z" fill="#3B7BF2"/>
      <path d="M154.39 207.35C145.28 209.66 136.27 205.08 136.27 205.08C136.27 205.08 142.01 196.76 151.12 194.45C160.23 192.14 169.24 196.72 169.24 196.72C169.24 196.72 163.49 205.04 154.39 207.35Z" fill="#3B7BF2"/>
      <path d="M143.32 193.86C139.511 199.157 136.067 204.706 133.01 210.47" stroke="#3B7BF2" stroke-width="2" stroke-linecap="round" stroke-linejoin="round"/>
      <path d="M158.45 186.38C152.28 193.46 142.26 194.82 142.26 194.82C142.26 194.82 142.26 184.71 148.42 177.64C154.58 170.57 164.61 169.19 164.61 169.19C164.61 169.19 164.61 179.3 158.45 186.38Z" fill="#76ABFF"/>

      <animateTransform
        attributeType="XML" attributeName="transform" type="rotate"
        begin="closeCapHide.end + 0.2s"
        dur="1.3s"
        values="30 133.01 210.47; -20 133.01 210.47; 0 133.01 210.47"
        keyTimes="             0;               0.7;               1"
        calcMode="paced"
        fill="freeze"
      />
    </g>

    <animate
      attributeType="CSS"
      attributeName="opacity"
      begin="closeCapHide.end"
      dur="0.01s"
      from="0"
      to="1"
      fill="freeze"
    />
  </g>

  <g id="balloon" opacity="0">
    <path id="balloonLine" d="M62.5925 209.842L62.5925 210.842" stroke="white" stroke-width="2" stroke-miterlimit="10" stroke-linecap="round">
      <animate
        id="growBalloonLine"
        attributeName="d"
        begin="closeCapHide.end + 0.2s"
        values="
                        M62.5925 209.842L62.5925 210.842;
                        M62.5925 88.9 L62.5925 210.842;
                        "
        dur="0.6s"
        fill="freeze"
      />
    </path>

    <g id="balloonBody" transform="rotate(60 71.3301 246.926)">
      <path d="M61.6586 245.997L59.4477 249.784C59.331 249.988 59.2705 250.219 59.2722 250.453C59.2739 250.687 59.3377 250.917 59.4573 251.119C59.5769 251.322 59.748 251.49 59.9536 251.606C60.1592 251.722 60.392 251.783 60.6288 251.782H65.0406C65.2766 251.781 65.5081 251.719 65.7123 251.602C65.9165 251.485 66.0862 251.317 66.2046 251.115C66.323 250.913 66.3859 250.684 66.3871 250.45C66.3884 250.217 66.3279 249.987 66.2117 249.784L64.0109 245.997C63.8907 245.794 63.7189 245.625 63.5126 245.508C63.3062 245.391 63.0726 245.329 62.8347 245.329C62.5969 245.329 62.3632 245.391 62.1569 245.508C61.9505 245.625 61.7788 245.794 61.6586 245.997Z" fill="white"/>
      <path d="M62.8297 163.609C71.6361 163.611 80.0813 167.075 86.3093 173.237C92.5373 179.4 96.0387 187.758 96.0441 196.474C96.0441 214.63 80.8099 245.327 62.4763 245.327C44.1428 245.327 29.6153 214.62 29.6153 196.474C29.6206 187.758 33.1221 179.4 39.3501 173.237C45.5781 167.075 54.0232 163.611 62.8297 163.609ZM62.8297 162C53.5956 162.011 44.7427 165.646 38.2132 172.109C31.6837 178.572 28.0107 187.334 28 196.474C28 205.977 31.8363 218.557 37.7725 228.52C44.8394 240.391 53.6023 246.926 62.4662 246.926C71.3301 246.926 80.2344 240.391 87.5133 228.54C93.6716 218.547 97.6594 205.917 97.6594 196.474C97.6487 187.334 93.9757 178.572 87.4462 172.109C80.9167 165.646 72.0638 162.011 62.8297 162Z" fill="white"/>
      <path d="M51.0381 196.554C51.0381 178.408 56.3181 163.689 62.8297 163.689C54.0233 163.691 45.5781 167.154 39.3501 173.317C33.1221 179.48 29.6206 187.837 29.6153 196.554C29.6153 214.71 44.1327 245.407 62.4764 245.407H62.648C56.1565 245.217 51.0381 214.66 51.0381 196.554Z" fill="#76ABFF"/>
      <path d="M96.0441 196.554C96.0387 187.837 92.5373 179.48 86.3093 173.317C80.0812 167.154 71.6361 163.691 62.8297 163.689C69.3413 163.689 74.6213 178.408 74.6213 196.554C74.6213 214.7 69.2807 244.997 62.8297 245.387C81.0017 244.997 96.0441 214.59 96.0441 196.554Z" fill="#1553B7"/>
      <path d="M74.6213 196.554C74.6213 178.408 69.3413 163.689 62.8297 163.689C56.318 163.689 51.0381 178.408 51.0381 196.554C51.0381 214.7 56.1565 245.207 62.648 245.407H62.8297C69.2807 245.007 74.6213 214.6 74.6213 196.564" fill="#3B7BF2"/>
      <path d="M55.5609 189.529C54.4227 189.529 53.3102 189.863 52.3639 190.489C51.4175 191.115 50.68 192.005 50.2444 193.045C49.8089 194.086 49.6949 195.231 49.917 196.336C50.139 197.441 50.6871 198.456 51.4918 199.252C52.2966 200.049 53.322 200.591 54.4382 200.811C55.5545 201.031 56.7115 200.918 57.763 200.487C58.8145 200.056 59.7132 199.326 60.3455 198.389C60.9778 197.453 61.3153 196.351 61.3153 195.225C61.3609 194.465 61.2433 193.705 60.9702 192.993C60.6972 192.282 60.2748 191.635 59.7311 191.097C59.1874 190.559 58.5346 190.141 57.8158 189.871C57.097 189.601 56.3285 189.484 55.5609 189.529ZM55.5609 197.523C53.6831 197.523 52.4716 196.594 52.4716 195.235C52.4716 193.876 53.6932 192.947 55.5609 192.947C57.4285 192.947 58.6602 193.876 58.6602 195.235C58.6602 196.594 57.3983 197.523 55.5609 197.523Z" fill="white"/>
      <path d="M69.8966 189.529C70.2253 189.529 70.5479 189.618 70.829 189.787C71.1102 189.955 71.3392 190.197 71.4912 190.486C71.6432 190.774 71.7124 191.098 71.6911 191.423C71.6698 191.748 71.5589 192.061 71.3705 192.327L57.9132 211.653C57.6232 211.984 57.2203 212.198 56.7811 212.255C56.3419 212.312 55.8969 212.207 55.5307 211.961C55.1645 211.714 54.9025 211.343 54.7945 210.918C54.6866 210.492 54.7401 210.043 54.9451 209.654L68.4125 190.329C68.5775 190.09 68.7991 189.895 69.0578 189.761C69.3165 189.627 69.6045 189.558 69.8966 189.559" fill="white"/>
      <path d="M71.3806 201.041C70.2425 201.041 69.1299 201.375 68.1836 202C67.2373 202.626 66.4997 203.516 66.0642 204.557C65.6287 205.597 65.5147 206.743 65.7367 207.847C65.9588 208.952 66.5068 209.967 67.3116 210.764C68.1164 211.56 69.1417 212.103 70.258 212.323C71.3742 212.542 72.5313 212.43 73.5828 211.998C74.6343 211.567 75.533 210.837 76.1653 209.901C76.7976 208.964 77.1351 207.863 77.1351 206.736C77.179 205.977 77.0603 205.217 76.7867 204.506C76.513 203.795 76.0907 203.15 75.5473 202.612C75.0039 202.074 74.3518 201.656 73.6337 201.385C72.9156 201.115 72.1478 200.997 71.3806 201.041ZM71.3806 209.035C69.5029 209.035 68.2914 208.105 68.2914 206.746C68.2914 205.387 69.513 204.458 71.3806 204.458C73.2483 204.458 74.48 205.357 74.48 206.746C74.48 208.135 73.2584 209.035 71.3806 209.035Z" fill="white"/>

      <animateTransform
        attributeType="XML" attributeName="transform" type="translate"
        begin="closeCapHide.end + 0.2s"
        dur="0.6s"
        from="0 0"
        to="0 -160"
        fill="freeze"
      />

      <animateTransform
        id="balloonBodyTop"
        attributeType="XML" attributeName="transform" type="rotate"
        begin="closeCapHide.end + 0.2s"
        dur="0.6s"
        from="60 71.3301 246.926"
        to="0 71.3301 246.926"
        additive="sum"
        fill="freeze"
      />

      <animateTransform
        attributeType="XML" attributeName="transform" type="rotate"
        begin="balloonBodyTop.end"
        dur="0.6s"
        values="0 71.3301 246.926; -10 71.3301 246.926; 5 71.3301 246.926; 0 71.3301 246.926"
        keyTimes="              0;                 0.2;               0.6;                 1"
        additive="sum"
        calcMode="paced"
        fill="freeze"
      />
    </g>

    <animate
      attributeType="CSS"
      attributeName="opacity"
      begin="closeCapHide.end"
      dur="0.01s"
      from="0"
      to="1"
      fill="freeze"
    />
  </g>

  <g id="hummingbird" transform="translate(-100, 105)" opacity="0">
    <path id="hummingbirdWing" d="M233.96 105.99C233.952 104.877 234.325 103.795 235.016 102.922C235.707 102.049 236.675 101.438 237.76 101.19V101.19L258.83 95.79C251.05 110.63 239.65 110.86 238.83 110.86C237.539 110.847 236.306 110.325 235.397 109.407C234.489 108.49 233.98 107.251 233.98 105.96" fill="white">
      <animate
        attributeName="d"
        values="
                M 233.96 105.99 C 233.952 104.877 234.325 103.795 235.016 102.922 C 235.707 102.049 236.675 101.438 237.76 101.19 C 237.76 101.19 237.76 101.19 237.76 101.19 L 258.83 95.79 C 251.05 110.63 239.65 110.86 238.83 110.86 C 237.539 110.847 236.306 110.325 235.397 109.407 C 234.489 108.49 233.98 107.251 233.98 105.96;
                M 236.164 105.959 C 236.16 105.403 236.252 104.854 236.432 104.336 C 236.613 103.817 236.881 103.329 237.23 102.893 C 237.927 102.02 238.905 101.41 240 101.162 L 255 91 C 247.146 105.829 241.908 110.825 241.08 110.825 C 239.777 110.812 238.532 110.29 237.615 109.373 C 236.698 108.456 236.184 107.219 236.184 105.929;
                M 236.184 105.929 C 236.184 107.219 236.698 108.456 237.615 109.373 C 238.532 110.29 239.777 110.812 241.08 110.825 C 241.908 110.825 225 110.825 222.5 95.5 L 240 101.162 C 238.905 101.41 237.927 102.02 237.23 102.893 C 236.881 103.329 236.613 103.817 236.432 104.336 C 236.252 104.854 236.16 105.403 236.164 105.959;
                M 236.164 105.959 C 236.16 105.403 236.252 104.854 236.432 104.336 C 236.613 103.817 236.881 103.329 237.23 102.893 C 237.927 102.02 238.905 101.41 240 101.162 L 255 91 C 247.146 105.829 241.908 110.825 241.08 110.825 C 239.777 110.812 238.532 110.29 237.615 109.373 C 236.698 108.456 236.184 107.219 236.184 105.929;
                M 233.96 105.99 C 233.952 104.877 234.325 103.795 235.016 102.922 C 235.707 102.049 236.675 101.438 237.76 101.19 C 237.76 101.19 237.76 101.19 237.76 101.19 L 258.83 95.79 C 251.05 110.63 239.65 110.86 238.83 110.86 C 237.539 110.847 236.306 110.325 235.397 109.407 C 234.489 108.49 233.98 107.251 233.98 105.96;
                        "
        dur="0.2s"
        repeatCount="indefinite"
        begin="closeCapHide.end"
      />
    </path>
    <path d="M217 92.0499H227.76C228.115 91.1766 228.726 90.4315 229.514 89.9136C230.301 89.3957 231.228 89.1294 232.17 89.15C232.853 89.1131 233.534 89.2563 234.145 89.5651C234.756 89.874 235.275 90.3377 235.65 90.91C236.2 91.7206 236.659 92.5891 237.02 93.4999C237.65 95.0699 241.02 109.3 242.91 112.66C244.01 114.66 247.3 119.82 247.3 119.82C247.503 120.169 247.609 120.566 247.61 120.97V130.19C247.61 130.19 244.5 129.11 244.5 126.28V119.75C242.59 120.02 238.5 118.1 236.17 116.87C233.28 115.49 231.011 113.079 229.81 110.11C228.598 107.184 228.559 103.904 229.7 100.95C230.168 100.047 230.437 99.0552 230.49 98.04C230.43 96.9 229.1 95.32 228.31 93.99L217 92.0499Z" fill="white"/>

    <animate
      attributeType="CSS"
      attributeName="opacity"
      begin="closeCapHide.end"
      dur="0.01s"
      from="0"
      to="1"
      fill="freeze"
    />

    <animateTransform
      id="birdShow"
      attributeName="transform"
      type="translate"
      to="0, 0"
      dur="0.6s"
      fill="freeze"
      begin="closeCapHide.end + 0.2s"
    />
    <animateTransform
      id="birdRotate"
      attributeName="transform"
      type="rotate"
      values="0 250 80; -10 220 54.5; 0 241.02 109.3; 10 220 54.5; 0 241.02 109.3"
      dur="3s"
      begin="birdShow.begin"
      additive="sum"
      repeatDur="indefinite"
    />
  </g>

  <g id="suitcaseCorpus">
    <path d="M235.05 240.81C236.2 240.931 237.361 240.701 238.378 240.149C239.394 239.598 240.22 238.751 240.746 237.72C241.271 236.69 241.472 235.524 241.321 234.377C241.171 233.23 240.676 232.155 239.902 231.296C239.128 230.436 238.112 229.83 236.987 229.56C235.862 229.29 234.682 229.367 233.602 229.781C232.522 230.195 231.592 230.927 230.937 231.88C230.281 232.834 229.93 233.963 229.93 235.12C229.859 236.552 230.358 237.955 231.317 239.021C232.276 240.087 233.618 240.73 235.05 240.81Z" fill="#A67EE5"/>
    <path d="M235.05 240.8C237.878 240.8 240.17 238.252 240.17 235.11C240.17 231.967 237.878 229.42 235.05 229.42C232.222 229.42 229.93 231.967 229.93 235.11C229.93 238.252 232.222 240.8 235.05 240.8Z" stroke="white" stroke-width="2" stroke-miterlimit="10"/>
    <path d="M184.98 251.05H36.98C33.8509 251.077 30.8381 249.865 28.5993 247.678C26.3605 245.492 25.0774 242.509 25.03 239.38V211.19H196.92V239.36C196.875 242.488 195.594 245.471 193.357 247.658C191.12 249.844 188.108 251.057 184.98 251.03" fill="#A67EE5"/>
    <path d="M184.98 251.05H36.98C33.8509 251.077 30.8381 249.865 28.5993 247.678C26.3605 245.492 25.0774 242.509 25.03 239.38V211.19H196.92V239.36C196.88 242.491 195.602 245.48 193.364 247.671C191.126 249.862 188.112 251.077 184.98 251.05V251.05Z" stroke="white" stroke-width="2" stroke-miterlimit="10"/>
    <path d="M221.48 251.05H74.48C71.3615 251.066 68.3633 249.848 66.1395 247.662C63.9157 245.475 62.6469 242.498 62.61 239.38V211.19H233.34V239.36C233.308 242.478 232.043 245.457 229.82 247.644C227.597 249.831 224.598 251.049 221.48 251.03" fill="#A67EE5"/>
    <path d="M221.48 251.05H74.48C71.3615 251.066 68.3633 249.848 66.1395 247.662C63.9157 245.475 62.6469 242.498 62.61 239.38V211.19H233.34V239.36C233.314 242.482 232.05 245.465 229.827 247.657C227.603 249.848 224.602 251.069 221.48 251.05Z" stroke="white" stroke-width="2" stroke-miterlimit="10"/>
    <path d="M169.76 236.26H135.25C134.123 236.282 133.032 235.856 132.217 235.077C131.402 234.297 130.929 233.227 130.9 232.1V220.4C130.903 220.236 130.938 220.075 131.003 219.925C131.068 219.775 131.163 219.639 131.281 219.525C131.399 219.412 131.538 219.323 131.691 219.264C131.844 219.205 132.006 219.176 132.17 219.18H135.05C135.38 219.175 135.698 219.3 135.936 219.528C136.174 219.757 136.312 220.07 136.32 220.4V230.4C136.33 230.749 136.478 231.08 136.731 231.322C136.983 231.563 137.321 231.695 137.67 231.69H167.38C167.729 231.695 168.067 231.563 168.319 231.322C168.572 231.08 168.72 230.749 168.73 230.4V220.4C168.733 220.236 168.768 220.075 168.833 219.925C168.898 219.775 168.993 219.639 169.111 219.525C169.229 219.412 169.368 219.323 169.521 219.264C169.674 219.205 169.836 219.176 170 219.18H172.88C173.21 219.175 173.528 219.3 173.766 219.528C174.004 219.757 174.142 220.07 174.15 220.4V232.09C174.121 233.217 173.648 234.287 172.833 235.067C172.018 235.846 170.927 236.272 169.8 236.25" fill="#A67EE5"/>
    <path d="M169.76 236.26H135.25C134.123 236.282 133.032 235.856 132.217 235.077C131.402 234.297 130.929 233.227 130.9 232.1V220.4C130.903 220.236 130.938 220.075 131.003 219.925C131.068 219.775 131.163 219.639 131.281 219.525C131.399 219.412 131.538 219.323 131.691 219.264C131.844 219.205 132.006 219.176 132.17 219.18H135.05C135.38 219.175 135.698 219.3 135.936 219.528C136.174 219.757 136.312 220.07 136.32 220.4V230.4C136.33 230.749 136.478 231.08 136.731 231.322C136.983 231.563 137.321 231.695 137.67 231.69H167.38C167.729 231.695 168.067 231.563 168.319 231.322C168.572 231.08 168.72 230.749 168.73 230.4V220.4C168.733 220.236 168.768 220.075 168.833 219.925C168.898 219.775 168.993 219.639 169.111 219.525C169.229 219.412 169.368 219.323 169.521 219.264C169.674 219.205 169.836 219.176 170 219.18H172.88C173.21 219.175 173.528 219.3 173.766 219.528C174.004 219.757 174.142 220.07 174.15 220.4V232.09C174.137 232.653 174.013 233.207 173.785 233.721C173.557 234.236 173.23 234.7 172.822 235.088C172.414 235.475 171.933 235.778 171.408 235.979C170.883 236.181 170.322 236.276 169.76 236.26V236.26Z" stroke="white" stroke-width="2" stroke-miterlimit="10"/>
    <path d="M102.44 204.38H93.34V216.9H102.44V204.38Z" fill="#A67EE5"/>
    <path d="M102.44 204.38H93.34V216.9H102.44V204.38Z" stroke="white" stroke-width="2" stroke-miterlimit="10"/>
    <path d="M211.71 204.38H202.61V216.9H211.71V204.38Z" fill="#A67EE5"/>
    <path d="M211.71 204.38H202.61V216.9H211.71V204.38Z" stroke="white" stroke-width="2" stroke-miterlimit="10"/>
    <path d="M233.34 239.3V229.43H222.94C221.438 229.467 220.012 230.098 218.975 231.186C217.938 232.273 217.375 233.728 217.41 235.23V251.05H222.14C228.3 251.05 233.34 245.76 233.34 239.3" fill="#A67EE5"/>
    <path d="M233.34 239.3V229.43H222.94C221.438 229.467 220.012 230.098 218.975 231.186C217.938 232.273 217.375 233.728 217.41 235.23V251.05H222.14C228.3 251.05 233.34 245.77 233.34 239.3Z" stroke="white" stroke-width="2" stroke-miterlimit="10"/>
    <path d="M54.76 223.73H33.98C33.7148 223.73 33.4604 223.625 33.2729 223.437C33.0854 223.25 32.98 222.995 32.98 222.73V220.19C32.98 219.925 33.0854 219.67 33.2729 219.483C33.4604 219.295 33.7148 219.19 33.98 219.19H54.76C55.0252 219.19 55.2796 219.295 55.4671 219.483C55.6547 219.67 55.76 219.925 55.76 220.19V222.77C55.76 223.035 55.6547 223.29 55.4671 223.477C55.2796 223.665 55.0252 223.77 54.76 223.77" fill="#A67EE5"/>
    <path d="M54.76 223.73H33.98C33.7148 223.73 33.4604 223.625 33.2729 223.437C33.0854 223.25 32.98 222.995 32.98 222.73V220.19C32.98 219.925 33.0854 219.67 33.2729 219.483C33.4604 219.295 33.7148 219.19 33.98 219.19H54.76C55.0252 219.19 55.2796 219.295 55.4671 219.483C55.6547 219.67 55.76 219.925 55.76 220.19V222.77C55.7497 223.028 55.6398 223.272 55.4533 223.451C55.2669 223.63 55.0184 223.73 54.76 223.73Z" stroke="white" stroke-width="2" stroke-miterlimit="10"/>
  </g>

  <path d="M1 251.19H258.52" stroke="white" stroke-width="2" stroke-linecap="round" stroke-linejoin="round"/>
</svg>
