<svg viewBox="0 0 330 276" fill="none" xmlns="http://www.w3.org/2000/svg">
  <g id="farCloud" transform="translate(100, 0)" opacity="0">
    <path d="M51.31 23.72H91.08" stroke="white" stroke-width="2" stroke-miterlimit="10" stroke-linecap="round"/>
    <path d="M71.09 13.45H43.73C43.73 10.1613 42.4236 7.00732 40.0981 4.68187C37.7727 2.35641 34.6187 1.04999 31.33 1.04999C28.0413 1.04999 24.8873 2.35641 22.5619 4.68187C20.2364 7.00732 18.93 10.1613 18.93 13.45H1" stroke="white" stroke-width="2" stroke-miterlimit="10" stroke-linecap="round"/>
    <path d="M79.35 13.45H101.55" stroke="white" stroke-width="2" stroke-miterlimit="10" stroke-linecap="round"/>

    <animate
      attributeType="CSS"
      attributeName="opacity"
      from="0"
      to="1"
      dur="0.3s"
      fill="freeze"
    />
    <animateTransform
      attributeType="XML" attributeName="transform" type="translate"
      dur="0.4s"
      to="0, 0"
      fill="freeze"
    />

    <animateTransform
      attributeType="XML" attributeName="transform" type="translate"
      begin="suitcaseFly.begin + 1s"
      dur="0.4s"
      to="0, -50"
      fill="freeze"
    />
    <animate
      attributeType="CSS"
      attributeName="opacity"
      begin="suitcaseFly.begin + 1s"
      from="1"
      to="0"
      dur="0.3s"
      fill="freeze"
    />
  </g>

  <g id="fullFillCloud" transform="translate(150, 0)" opacity="0">
    <path d="M221.64 65H202.19C202.068 56.8962 199.175 49.0784 193.994 42.8464C188.812 36.6144 181.654 32.3436 173.708 30.744C165.763 29.1444 157.51 30.3125 150.32 34.0539C143.131 37.7954 137.439 43.8849 134.19 51.31C130.247 49.1215 125.809 47.9818 121.3 48C115.938 48.0179 110.705 49.6489 106.282 52.6807C101.859 55.7126 98.4506 60.0051 96.5 65H81.35C78.5652 65 75.8945 66.1062 73.9254 68.0754C71.9562 70.0445 70.85 72.7152 70.85 75.5C70.85 78.2848 71.9562 80.9555 73.9254 82.9246C75.8945 84.8937 78.5652 86 81.35 86H221.65C224.435 86 227.105 84.8937 229.075 82.9246C231.044 80.9555 232.15 78.2848 232.15 75.5C232.15 72.7152 231.044 70.0445 229.075 68.0754C227.105 66.1062 224.435 65 221.65 65" fill="white"/>

    <path d="M258 91.28H297.78" stroke="white" stroke-width="2" stroke-miterlimit="10" stroke-linecap="round"/>
    <path d="M286.05 81H308.25" stroke="white" stroke-width="2" stroke-miterlimit="10" stroke-linecap="round"/>

    <animate
      attributeType="CSS"
      attributeName="opacity"
      from="0"
      to="1"
      dur="0.3s"
      fill="freeze"
    />
    <animateTransform
      id="fullFillCloudInPlace"
      attributeType="XML" attributeName="transform" type="translate"
      dur="0.4s"
      to="0, 0"
      fill="freeze"
    />

    <animateTransform
      attributeType="XML" attributeName="transform" type="translate"
      begin="suitcaseFly.begin + 1s"
      dur="0.4s"
      to="0, -100"
      fill="freeze"
    />
    <animate
      attributeType="CSS"
      attributeName="opacity"
      begin="suitcaseFly.begin + 1s"
      from="1"
      to="0"
      dur="0.3s"
      fill="freeze"
    />
  </g>

  <g id="leafBig">
    <path d="M249.34 152.82C249.665 152.58 250.054 152.444 250.458 152.43C250.861 152.415 251.26 152.524 251.601 152.74C251.942 152.956 252.209 153.271 252.368 153.642C252.526 154.013 252.569 154.424 252.49 154.82C251.49 161.82 250.42 175.15 257.34 174.22C262.28 173.56 240.69 142.69 276.66 136.06C277.032 135.982 277.418 136.011 277.773 136.145C278.129 136.278 278.439 136.51 278.667 136.813C278.896 137.116 279.034 137.478 279.064 137.856C279.095 138.235 279.017 138.614 278.84 138.95C277.52 141.69 276.01 145.56 276.11 148.85C276.118 149.283 276.266 149.702 276.533 150.044C276.8 150.386 277.171 150.632 277.589 150.744C278.008 150.857 278.451 150.831 278.854 150.67C279.256 150.508 279.595 150.221 279.82 149.85C283.92 143.7 294.92 131.99 316.41 139.15C316.753 139.261 317.059 139.463 317.297 139.734C317.535 140.005 317.695 140.335 317.76 140.69C318.69 145.49 321.89 163.93 317.47 169.41C312.38 175.72 302.47 173.55 301.29 179.66C299.99 186.57 308.8 184.48 314.71 179.44C315.007 179.177 315.377 179.008 315.77 178.956C316.164 178.903 316.565 178.969 316.921 179.145C317.277 179.321 317.573 179.599 317.77 179.943C317.968 180.288 318.058 180.684 318.03 181.08C317.78 186.53 315.85 195.08 306.91 199.77C293.13 206.98 283.43 192.77 281.72 195.89C279.13 200.55 289.66 204.36 295.5 206.07C295.871 206.168 296.206 206.371 296.465 206.654C296.724 206.938 296.896 207.29 296.961 207.669C297.025 208.047 296.979 208.436 296.828 208.789C296.677 209.143 296.428 209.445 296.11 209.66C285.59 217.4 266.98 219.94 259.11 204.25C250.81 187.66 246.18 191.76 240.92 183.87C235.21 175.3 236.59 161.33 249.3 152.82H249.34ZM278.7 185.29C279.2 188.02 283.9 188.8 287.05 188.23C290.2 187.66 295.52 184.4 295.05 181.67C294.58 178.94 288.43 177.77 285.27 178.34C282.11 178.91 278.22 182.56 278.72 185.29" fill="#E81A5A">
      <animateTransform
        attributeType="XML" attributeName="transform" type="rotate"
        values="0 250.81 187.66; 7 250.81 187.66; 0 250.81 187.66"
        dur="1s"
        repeatCount="indefinite"
      />
    </path>
    <path d="M248.87 273.88C248.87 273.88 243.96 203.61 254.41 193.16" stroke="#E81A5A" stroke-width="2" stroke-miterlimit="10"/>
  </g>

  <g id="flyingSuitcase" transform="scale(0) translate(-48, -103)">
    <path d="M94.6699 248.14C95.6053 248.137 96.5016 247.765 97.1631 247.103C97.8245 246.442 98.1973 245.545 98.1999 244.61V239.54C98.1999 238.604 97.828 237.706 97.166 237.044C96.504 236.382 95.6061 236.01 94.6699 236.01C93.7337 236.01 92.8358 236.382 92.1738 237.044C91.5118 237.706 91.1399 238.604 91.1399 239.54V244.61C91.1451 245.545 91.5187 246.439 92.1796 247.1C92.8405 247.761 93.7353 248.135 94.6699 248.14" fill="#A67EE5"/>
    <path d="M94.6699 248.14C95.6053 248.137 96.5016 247.765 97.1631 247.103C97.8245 246.442 98.1973 245.545 98.1999 244.61V239.54C98.1999 238.604 97.828 237.706 97.166 237.044C96.504 236.382 95.6061 236.01 94.6699 236.01C93.7337 236.01 92.8358 236.382 92.1738 237.044C91.5118 237.706 91.1399 238.604 91.1399 239.54V244.61C91.1451 245.545 91.5187 246.439 92.1796 247.1C92.8405 247.761 93.7353 248.135 94.6699 248.14V248.14Z" stroke="white" stroke-width="2" stroke-miterlimit="10"/>
    <path d="M19.13 248.14C20.0654 248.137 20.9617 247.765 21.6231 247.103C22.2846 246.442 22.6573 245.545 22.66 244.61V239.54C22.66 238.604 22.2881 237.706 21.6261 237.044C20.964 236.382 20.0662 236.01 19.13 236.01C18.1938 236.01 17.2959 236.382 16.6339 237.044C15.9719 237.706 15.6 238.604 15.6 239.54V244.61C15.6026 245.545 15.9754 246.442 16.6368 247.103C17.2982 247.765 18.1946 248.137 19.13 248.14" fill="#A67EE5"/>
    <path d="M19.13 248.14C20.0654 248.137 20.9617 247.765 21.6231 247.103C22.2846 246.442 22.6573 245.545 22.66 244.61V239.54C22.66 238.604 22.2881 237.706 21.6261 237.044C20.964 236.382 20.0662 236.01 19.13 236.01C18.1938 236.01 17.2959 236.382 16.6339 237.044C15.9719 237.706 15.6 238.604 15.6 239.54V244.61C15.6026 245.545 15.9754 246.442 16.6368 247.103C17.2982 247.765 18.1946 248.137 19.13 248.14V248.14Z" stroke="white" stroke-width="2" stroke-miterlimit="10"/>
    <path d="M13.7 239.55H88.2C91.2077 239.542 94.0901 238.344 96.2169 236.217C98.3437 234.09 99.542 231.208 99.55 228.2V162.12C99.542 159.112 98.3437 156.23 96.2169 154.103C94.0901 151.976 91.2077 150.778 88.2 150.77H13.7C10.6922 150.778 7.80988 151.976 5.68306 154.103C3.55624 156.23 2.35789 159.112 2.34998 162.12V228.2C2.35789 231.208 3.55624 234.09 5.68306 236.217C7.80988 238.344 10.6922 239.542 13.7 239.55" fill="#A67EE5"/>
    <path d="M88.2 150.78H13.7C7.43154 150.78 2.34998 155.862 2.34998 162.13V228.21C2.34998 234.478 7.43154 239.56 13.7 239.56H88.2C94.4684 239.56 99.55 234.478 99.55 228.21V162.13C99.55 155.862 94.4684 150.78 88.2 150.78Z" stroke="white" stroke-width="2" stroke-miterlimit="10"/>
    <path d="M42.04 138.41H74.44C75.5212 138.413 76.5575 138.843 77.3221 139.608C78.0866 140.372 78.5173 141.409 78.52 142.49V158.49C78.52 158.806 78.3946 159.108 78.1714 159.331C77.9483 159.555 77.6456 159.68 77.33 159.68H74.63C74.3144 159.68 74.0117 159.555 73.7885 159.331C73.5653 159.108 73.44 158.806 73.44 158.49V144.12C73.44 143.783 73.3062 143.46 73.068 143.222C72.8298 142.984 72.5068 142.85 72.17 142.85H44.31C43.9731 142.85 43.6501 142.984 43.4119 143.222C43.1738 143.46 43.04 143.783 43.04 144.12V158.5C43.04 158.816 42.9146 159.118 42.6914 159.341C42.4683 159.565 42.1656 159.69 41.85 159.69H39.15C38.8344 159.69 38.5317 159.565 38.3085 159.341C38.0853 159.118 37.96 158.816 37.96 158.5V142.5C37.9652 141.418 38.3982 140.382 39.1643 139.617C39.9305 138.853 40.9678 138.423 42.05 138.42" fill="#A67EE5"/>
    <path d="M42.04 138.41H74.44C75.5212 138.413 76.5575 138.843 77.3221 139.608C78.0866 140.372 78.5173 141.409 78.52 142.49V158.49C78.52 158.806 78.3946 159.108 78.1714 159.331C77.9483 159.555 77.6456 159.68 77.33 159.68H74.63C74.3144 159.68 74.0117 159.555 73.7885 159.331C73.5653 159.108 73.44 158.806 73.44 158.49V144.12C73.44 143.783 73.3062 143.46 73.068 143.222C72.8298 142.984 72.5068 142.85 72.17 142.85H44.31C43.9731 142.85 43.6501 142.984 43.4119 143.222C43.1738 143.46 43.04 143.783 43.04 144.12V158.5C43.04 158.816 42.9146 159.118 42.6914 159.341C42.4683 159.565 42.1656 159.69 41.85 159.69H39.15C38.8344 159.69 38.5317 159.565 38.3085 159.341C38.0853 159.118 37.96 158.816 37.96 158.5V142.5C37.9626 141.418 38.393 140.381 39.1573 139.614C39.9216 138.848 40.9578 138.415 42.04 138.41Z" stroke="white" stroke-width="2" stroke-miterlimit="10"/>
    <path d="M28.12 239.55H102.62C105.628 239.542 108.51 238.344 110.637 236.217C112.764 234.09 113.962 231.208 113.97 228.2V162.12C113.962 159.112 112.764 156.23 110.637 154.103C108.51 151.976 105.628 150.778 102.62 150.77H28.12C25.114 150.781 22.2342 151.98 20.1096 154.107C17.9849 156.233 16.7879 159.114 16.78 162.12V228.2C16.7906 231.207 17.9898 234.088 20.116 236.214C22.2423 238.34 25.1231 239.539 28.13 239.55" fill="#A67EE5"/>
    <path d="M28.12 239.55H102.62C105.628 239.542 108.51 238.344 110.637 236.217C112.764 234.09 113.962 231.208 113.97 228.2V162.12C113.962 159.112 112.764 156.23 110.637 154.103C108.51 151.976 105.628 150.778 102.62 150.77H28.12C25.114 150.781 22.2342 151.98 20.1096 154.107C17.9849 156.233 16.7879 159.114 16.78 162.12V228.2C16.7906 231.205 17.9884 234.084 20.1125 236.21C22.2366 238.336 25.1148 239.537 28.12 239.55V239.55Z" stroke="white" stroke-width="2" stroke-miterlimit="10"/>
    <path d="M97.01 171.69H33.75" stroke="white" stroke-width="2" stroke-miterlimit="10" stroke-linecap="round"/>
    <path d="M97.01 195.17H33.75" stroke="white" stroke-width="2" stroke-miterlimit="10" stroke-linecap="round"/>
    <path d="M97.01 218.64H33.75" stroke="white" stroke-width="2" stroke-miterlimit="10" stroke-linecap="round"/>
    <path d="M10.9 172.94H11.57V217.4H10.9C9.96897 217.397 9.07668 217.027 8.4174 216.37C7.75813 215.712 7.38528 214.821 7.38 213.89V176.46C7.38 175.998 7.47105 175.54 7.64795 175.113C7.82485 174.686 8.08412 174.298 8.41098 173.971C8.73784 173.644 9.12588 173.385 9.55295 173.208C9.98001 173.031 10.4377 172.94 10.9 172.94" fill="#A67EE5"/>
    <path d="M10.9 172.94H11.57V217.4H10.9C9.96897 217.397 9.07668 217.027 8.4174 216.37C7.75813 215.712 7.38528 214.821 7.38 213.89V176.46C7.38 175.526 7.75085 174.631 8.41098 173.971C9.07111 173.311 9.96643 172.94 10.9 172.94V172.94Z" stroke="white" stroke-width="2" stroke-miterlimit="10"/>

    <g id="parachute">
      <path d="M58.2499 138.13L2.65991 58.3" stroke="white" stroke-width="2" stroke-linecap="round" stroke-linejoin="round"/>
      <path d="M58.25 138.13L39.71 58.3" stroke="white" stroke-width="2" stroke-linecap="round" stroke-linejoin="round"/>
      <path d="M76.77 58.3L58.25 138.13" stroke="white" stroke-width="2" stroke-linecap="round" stroke-linejoin="round"/>
      <path d="M113.83 58.3L58.25 138.13" stroke="white" stroke-width="2" stroke-linecap="round" stroke-linejoin="round"/>
      <path d="M58.24 2.7C72.9703 2.7106 87.094 8.56827 97.5081 18.9861C107.922 29.4039 113.775 43.5297 113.78 58.26C113.78 51.5 105.48 46.01 95.25 46.01C85.02 46.01 76.94 51.36 76.73 58.01C76.73 58.09 76.73 58.18 76.73 58.27C76.73 51.51 68.43 46.02 58.2 46.02C47.97 46.02 39.66 51.51 39.66 58.27C39.66 58.18 39.66 58.1 39.66 58.01C39.44 51.37 31.24 46.01 21.14 46.01C11.04 46.01 2.62 51.5 2.62 58.26C2.61868 50.9594 4.05567 43.7302 6.84886 36.9851C9.64206 30.24 13.7367 24.1113 18.899 18.949C24.0613 13.7867 30.19 9.69206 36.9351 6.89886C43.6802 4.10567 50.9094 2.66869 58.21 2.67001L58.24 2.7ZM58.21 1.01C43.0382 1.03647 28.4959 7.07792 17.7715 17.8098C7.04714 28.5417 1.01586 43.0882 1 58.26C1 58.478 1.04294 58.6939 1.12636 58.8953C1.20978 59.0967 1.33206 59.2797 1.48621 59.4338C1.64035 59.5879 1.82335 59.7102 2.02475 59.7936C2.22615 59.8771 2.44201 59.92 2.66 59.92C2.878 59.92 3.09386 59.8771 3.29526 59.7936C3.49666 59.7102 3.67966 59.5879 3.8338 59.4338C3.98795 59.2797 4.11021 59.0967 4.19363 58.8953C4.27706 58.6939 4.31999 58.478 4.31999 58.26C4.31999 52.42 11.89 47.67 21.19 47.67C30.3 47.67 37.87 52.33 38.05 58.05V58.26C38.05 58.7003 38.2249 59.1225 38.5362 59.4338C38.8475 59.7451 39.2697 59.92 39.71 59.92C40.1503 59.92 40.5725 59.7451 40.8838 59.4338C41.1951 59.1225 41.37 58.7003 41.37 58.26C41.37 52.42 48.94 47.67 58.24 47.67C67.54 47.67 75.11 52.42 75.11 58.26C75.11 58.7003 75.2849 59.1225 75.5962 59.4338C75.9075 59.7451 76.3297 59.92 76.77 59.92C77.2103 59.92 77.6325 59.7451 77.9438 59.4338C78.2551 59.1225 78.43 58.7003 78.43 58.26V58.05C78.61 52.32 86.17 47.66 95.29 47.66C104.59 47.66 112.16 52.41 112.16 58.25C112.16 58.6903 112.335 59.1125 112.646 59.4238C112.958 59.7351 113.38 59.91 113.82 59.91C114.26 59.91 114.682 59.7351 114.994 59.4238C115.305 59.1125 115.48 58.6903 115.48 58.25C115.467 43.0739 109.434 28.5228 98.7043 17.7898C87.975 7.0568 73.4261 1.01853 58.25 1" fill="white"/>
      <path d="M58.2399 2.69998C68.1599 2.69998 76.2399 23.6 76.7799 58.03C76.9899 51.38 85.1899 46.03 95.2999 46.03C105.41 46.03 113.78 51.53 113.78 58.26C113.78 43.5166 107.923 29.3771 97.498 18.9519C87.0729 8.52676 72.9333 2.66998 58.1899 2.66998" fill="#E81A5A"/>
      <path d="M58.2299 2.7C43.4926 2.7 29.3587 8.55299 18.936 18.9719C8.51328 29.3909 2.65521 43.5227 2.6499 58.26C2.6499 51.5 10.9499 46.01 21.1699 46.01C31.3899 46.01 39.4699 51.36 39.6899 58.01C40.2099 23.58 48.2999 2.69 58.2199 2.69" fill="#FE6183"/>
      <path d="M58.24 2.69998C48.31 2.69998 40.24 23.6 39.7 58.02C39.7 58.11 39.7 58.19 39.7 58.28C39.7 51.52 48 46.03 58.2299 46.03C68.4599 46.03 76.78 51.53 76.78 58.26C76.78 58.17 76.78 58.09 76.78 58C76.27 23.57 68.1799 2.66998 58.2599 2.66998" fill="#F7396B"/>

      <animateTransform
        attributeType="XML" attributeName="transform" type="rotate"
        begin="suitcaseFly.end"
        values="0 58.25 138.13; 3 58.25 138.13; 0 58.25 138.13"
        dur="1s"
        repeatCount="indefinite"
      />
    </g>

    <animateTransform
      attributeType="XML" attributeName="transform" type="scale"
      begin="fullFillCloudInPlace.end"
      values="0;   0.3; 0.5; 0.7;  1"
      keyTimes="0; 0.1; 0.6; 0.99; 1"
      calcMode="paced"
      dur="2.5s"
      fill="freeze"
    />
    <animateTransform
      attributeType="XML" attributeName="transform" type="rotate"
      begin="fullFillCloudInPlace.end"
      dur="2.5s"
      values="0; 30; -30; 30; -10; 0"
      keyTimes="0; 0.1; 0.6; 0.99; 1"
      calcMode="paced"
      additive="sum"
      fill="freeze"
    />
  </g>

  <animateMotion
    id="suitcaseFly"
    href="#flyingSuitcase"
    path="M182 51.0001C192.684 42.2945 209.5 30.1697 185.5 20.0001C158.5 8.55938 117 14.5 91 20C68.9872 24.6566 85.5 25 88.5 25C91.5 25 141.5 12 180.5 25.5"
    begin="fullFillCloudInPlace.end"
    dur="2.5s"
    fill="freeze"
  />

  <g id="leafSmall">
    <path d="M308.79 229.4C309.073 229.676 309.274 230.024 309.371 230.407C309.468 230.79 309.458 231.193 309.34 231.57C308.28 235 304.76 244.42 297.24 247.91C292.11 250.29 288.91 245.21 286.32 248.68C283.73 252.15 288.42 253.68 293.24 252.99C293.656 252.922 294.084 252.977 294.469 253.149C294.854 253.32 295.181 253.601 295.408 253.956C295.636 254.311 295.755 254.726 295.75 255.147C295.745 255.569 295.616 255.98 295.38 256.33C294.122 258.319 292.394 259.968 290.349 261.131C288.303 262.294 286.002 262.936 283.65 263C272.81 263.27 271.1 251.42 269.08 252.81C266.36 254.7 270.35 259.36 273.47 262.38C273.769 262.667 273.979 263.034 274.076 263.437C274.172 263.84 274.15 264.262 274.013 264.653C273.876 265.044 273.63 265.388 273.303 265.642C272.976 265.897 272.583 266.053 272.17 266.09C263.41 266.93 252.45 262.58 252.37 251.09C252.29 238.15 248.12 239.29 247.26 232.74C246.35 225.86 251.14 217.86 261 216.05C261.397 215.978 261.805 216.018 262.18 216.166C262.555 216.314 262.881 216.563 263.122 216.887C263.362 217.211 263.507 217.595 263.54 217.997C263.574 218.398 263.494 218.801 263.31 219.16C260.9 223.89 257.31 231.76 260.49 231.72C263.95 231.72 258.91 209.14 288.92 216.46C289.282 216.549 289.615 216.731 289.886 216.987C290.157 217.243 290.357 217.565 290.467 217.921C290.577 218.278 290.592 218.657 290.512 219.021C290.432 219.385 290.259 219.722 290.01 220L289.91 220.11C289.583 220.473 289.389 220.935 289.359 221.422C289.329 221.91 289.465 222.392 289.744 222.793C290.024 223.193 290.43 223.486 290.898 223.626C291.366 223.765 291.867 223.742 292.32 223.56C295.98 222.04 301.48 222.29 308.79 229.4" fill="#FE6183"/>
    <path d="M231 273.88C231 273.88 234.48 243.77 252.7 243.77" stroke="#FE6183" stroke-width="2" stroke-miterlimit="10"/>

    <animateTransform
      id="leafSmallRotate"
      attributeType="XML" attributeName="transform" type="rotate"
      begin="1.5s; leafSmallRotate.end + 0.5s"
      values="0 231 273.88; 6 231 273.88; -4 231 273.88; 2 231 273.88; 0 231 273.88"
      dur="1.7s"
      calcMode="spline"
      keySplines="
                          0.36 0.14 0.81 0.94;
                          0.36 0.14 0.81 0.94;
                          0.25 0.26 0.77 0.96;
                          0.25 0.26 0.77 0.96;
                        "
    />
  </g>

  <path d="M28 275H34" stroke="white" stroke-width="2" stroke-linecap="round">
    <animate
      attributeName="d"
      values="
                          M28 275H34;
                          M27 275H305;
                          M168 275H304.66;
                          "
      dur="0.4s"
      calcMode="spline"
      keySplines="
                          0 0 1 1;
                          0 0 0.53 1;
                        "
      fill="freeze"
    />

  </path>
</svg>
